<svg
        style="fill: rgba(255,255,255,.8);"
        xmlns="http://www.w3.org/2000/svg" viewBox="0 0 64 80" x="0px" y="0px">
    <title>community-chat-talk-brainstorming</title>
    <g>
        <path d="M55.81,46.748a5.635,5.635,0,0,0-1.7-1.74l-1.583-1.072A7.379,7.379,0,0,0,54.669,39.4a1.394,1.394,0,0,0,.018-.272c.015-.153.017-.308.017-.447v-1a7.5,7.5,0,1,0-14.991,0v1c0,.075.011.248.021.4l.014.219a7.392,7.392,0,0,0,2.217,4.717l-1.408.8A6.819,6.819,0,0,0,38.9,43.192l-.46-.306a1.033,1.033,0,0,0-.218-.109c-.5-.179-1-.384-1.5-.61a8.236,8.236,0,0,0,2.761-5.432,1.735,1.735,0,0,0,.017-.282c.013-.169.014-.325.014-.48v-1.12A8.309,8.309,0,0,0,24.06,30.591a8.163,8.163,0,0,0-1.19,4.262v1.12c0,.107.019.36.035.548a.952.952,0,0,0,0,.141A8.246,8.246,0,0,0,25.5,42.011l-2.116,1.207a6.433,6.433,0,0,0-1.794,1.493l-1.158-.78a7.422,7.422,0,0,0,2.148-4.577,2.31,2.31,0,0,0,.015-.261c.012-.139.014-.277.014-.415v-.994a7.5,7.5,0,1,0-14.99,0v.994c0,.1.018.346.03.509a.869.869,0,0,0,0,.114,7.412,7.412,0,0,0,2.226,4.712l-1.755,1A6,6,0,0,0,5.1,50.221v9.77a1,1,0,0,0,1,1H55.745a1,1,0,0,0,1-1V49.962A5.9,5.9,0,0,0,55.81,46.748Zm-14.081-7.81c-.006-.095-.015-.2-.016-.255v-1a5.5,5.5,0,1,1,10.991,0v1a2.452,2.452,0,0,1-.007.254c0,.032-.011.186-.011.218a5.464,5.464,0,0,1-2.171,3.9l-.128.094a1.19,1.19,0,0,0-.106.068,3.255,3.255,0,0,1-.419.256l-.182.106-.009,0h0l0,0-.012.006a1.314,1.314,0,0,0-.231.106l-.11.04c-.072.025-.143.049-.167.06a6.655,6.655,0,0,1-.877.268,4.994,4.994,0,0,1-1.026.105c-.047,0-.093,0-.141,0-.17-.006-.339-.026-.582-.057a2.768,2.768,0,0,1-.282-.03c-.052-.012-.111-.024-.209-.043l-.061-.013-.01,0-.153-.038a1.7,1.7,0,0,1-.209-.06c-.066-.018-.126-.041-.28-.1-.092-.033-.176-.067-.269-.109l0,0h-.01l-.011,0-.058-.024c-.007-.005-.03-.016-.052-.027s-.058-.034-.095-.051a1.59,1.59,0,0,0-.175-.088.821.821,0,0,0-.134-.071l-.083-.045-.01-.006-.039-.022a.956.956,0,0,0-.118-.082l-.007.01a.825.825,0,0,0-.1-.058l.006-.014a5.373,5.373,0,0,1-2.415-4.014C41.745,39.182,41.738,39.067,41.729,38.938ZM24.91,36.6a.967.967,0,0,0-.006-.17c-.01-.08-.033-.359-.034-.461v-1.12a6.113,6.113,0,0,1,.9-3.234,6.31,6.31,0,0,1,11.733,3.234v1.12c0,.106,0,.214-.008.33,0,.025-.01.182-.01.208a6.284,6.284,0,0,1-2.525,4.511c-.063.047-.115.086-.238.166a3.287,3.287,0,0,1-.395.253c-.032.017-.063.037-.094.057h0a5.452,5.452,0,0,1-.635.308,6.311,6.311,0,0,1-2.4.486,4.926,4.926,0,0,1-.768-.061,5.285,5.285,0,0,1-.712-.119,6.2,6.2,0,0,1-.692-.207c-.191-.071-.368-.158-.549-.245l-.137-.064c-.113-.053-.218-.116-.405-.224a1.154,1.154,0,0,0-.129-.091l-.007.01a.839.839,0,0,0-.118-.071l.006-.015A6.242,6.242,0,0,1,24.91,36.6Zm-.545,8.356L27.279,43.3c.07.038.14.073.211.106l.123.059c.235.112.465.222.712.314a8.14,8.14,0,0,0,.916.277,7.171,7.171,0,0,0,.929.159,7.059,7.059,0,0,0,1.244.067c.227-.006.455-.019.683-.045.135-.016.27-.038.405-.061q.294-.05.587-.12c.114-.027.228-.053.342-.086a9,9,0,0,0,.93-.314c.163-.068.308-.133.439-.2a21.931,21.931,0,0,0,2.629,1.159l.352.235a4.767,4.767,0,0,1,1.3,1.338,4.286,4.286,0,0,1,.252.46,4.434,4.434,0,0,1,.474,2.027V58.99H22.033V48.975a4.649,4.649,0,0,1,.661-2.384A4.408,4.408,0,0,1,24.365,44.96ZM9.65,39.1c-.006-.058-.03-.326-.031-.426v-.994a5.5,5.5,0,1,1,10.99,0v.994a2.364,2.364,0,0,1-.006.238c-.005.04-.012.2-.012.235a5.471,5.471,0,0,1-2.177,3.906l-.143.1a.969.969,0,0,0-.085.057l0,0h0l-.011.007c-.07.051-.144.1-.224.149-.061.037-.123.075-.2.117a3.214,3.214,0,0,1-.535.262,5.9,5.9,0,0,1-.879.267c-.121.027-.243.052-.365.071-.173.028-.345.041-.518.052a5.531,5.531,0,0,1-.794,0c-.071-.008-.135-.007-.213-.017a4.438,4.438,0,0,1-.605-.1l-.111-.031c-.168-.046-.337-.095-.491-.15-.125-.047-.247-.1-.373-.162-.081-.039-.162-.078-.261-.128-.042-.019-.084-.044-.127-.068l-.294-.173c-.007,0-.015-.006-.021-.01a1.025,1.025,0,0,0-.091-.068,5.411,5.411,0,0,1-2.413-4A1.113,1.113,0,0,0,9.65,39.1ZM7.1,50.221a3.992,3.992,0,0,1,2.013-3.469l2.533-1.442c.046.024.087.044.117.056.062.031.124.06.185.089a6.629,6.629,0,0,0,.622.273c.2.067.422.131.64.19.059.016.11.036.172.052a8.457,8.457,0,0,0,.848.144,7.577,7.577,0,0,0,.892.059,7.314,7.314,0,0,0,.911-.064l.1-.015a7.531,7.531,0,0,0,.781-.153c.059-.015.117-.028.175-.044a8.084,8.084,0,0,0,.887-.3c.092-.039.192-.085.291-.13.142-.066.268-.131.379-.2.033-.018.069-.034.1-.053l.011-.007,1.785,1.2a6.56,6.56,0,0,0-.246.711c-.024.084-.042.168-.063.252-.041.167-.076.335-.1.506-.019.111-.037.221-.049.332-.019.164-.028.33-.034.5,0,.087-.018.172-.018.26V58.991H7.1ZM54.745,58.99H41.812V48.678a6.731,6.731,0,0,0-.076-.959c-.012-.082-.027-.162-.042-.243a6.346,6.346,0,0,0-.189-.769c-.012-.036-.015-.075-.027-.111l1.48-.843a.789.789,0,0,0,.092-.046l.69-.393a1.555,1.555,0,0,0,.2.094c.014.008.059.029.1.047a1.706,1.706,0,0,0,.175.081l.076.035c.118.056.231.107.355.153s.26.086.334.1l.093.029h0c.091.029.185.054.307.081.06.02.106.029.071.018a1.139,1.139,0,0,0,.165.042c.041.009.081.017.122.023l.145.031c.149.026.314.053.423.06.146.021.3.033.462.043h.014c.064,0,.127.007.193.009s.112.007.171.008c.017,0,.032,0,.048,0h.028c.055,0,.109-.008.165-.009.1,0,.2-.009.3-.015.122-.008.243-.014.364-.028a6.191,6.191,0,0,0,.645-.1,8.937,8.937,0,0,0,1.149-.346c.021-.006.126-.035.146-.042a.793.793,0,0,0,.189-.081l.041-.016.006,0h0l0,0,0,0,.025-.012a1.37,1.37,0,0,0,.175-.071c.02-.009.041-.024.062-.034l.013-.006.039-.021.021-.012c.012-.006.025-.015.037-.022l.013-.006c.066-.035.127-.071.208-.12l.021-.011,2.164,1.461a3.694,3.694,0,0,1,1.117,1.15,3.913,3.913,0,0,1,.618,2.134Z"/>
        <path d="M12.586,21.527v6a1,1,0,0,0,1.588.809l6.66-4.845h5.381a10.116,10.116,0,0,0,6.353-2.231,10.116,10.116,0,0,0,6.353,2.231H44.3l6.661,4.845a1,1,0,0,0,.588.191A1.014,1.014,0,0,0,52,28.421a1,1,0,0,0,.546-.892v-6A10.2,10.2,0,0,0,46.535,3.082H38.921A10.19,10.19,0,0,0,32.568,5.3a10.19,10.19,0,0,0-6.353-2.216H18.6a10.2,10.2,0,0,0-6.014,18.445ZM46.535,5.082a8.2,8.2,0,0,1,4.471,15.08A1,1,0,0,0,50.55,21v4.564l-5.336-3.88a1,1,0,0,0-.588-.192h-5.7a8.213,8.213,0,0,1-5.728-2.336.938.938,0,0,1-.072-.07,8.149,8.149,0,0,1-2.406-5.8,8.342,8.342,0,0,1,.042-.839,8.189,8.189,0,0,1,8.164-7.366ZM12.8,7.488a8.152,8.152,0,0,1,5.8-2.406h7.615a8.2,8.2,0,0,1,4.9,1.62c-.2.244-.4.5-.576.755-.045.064-.084.132-.127.2-.135.2-.266.41-.385.621-.057.1-.107.2-.16.306-.1.183-.188.367-.272.556-.051.115-.1.231-.145.348q-.11.273-.2.553c-.041.122-.08.243-.116.366-.056.191-.1.384-.149.579-.028.121-.057.241-.08.362-.041.214-.071.43-.1.646-.013.106-.031.21-.041.316-.031.324-.049.651-.049.98s.017.644.047.962c.01.106.028.21.041.315.027.211.054.421.093.628.024.124.054.245.082.367.042.186.086.371.139.554.036.127.078.252.119.378.058.174.119.347.186.519.049.124.1.247.154.369q.111.253.237.5c.059.117.119.234.183.349.092.167.192.329.294.491.067.106.132.213.2.316.117.172.244.337.373.5.067.087.13.176.2.26.017.021.032.044.049.064a8.126,8.126,0,0,1-4.9,1.633H20.509a1,1,0,0,0-.588.192l-5.335,3.88V21a1,1,0,0,0-.456-.839A8.193,8.193,0,0,1,12.8,7.488Z"/>
        <path d="M36.711,14.639H48.746a1,1,0,0,0,0-2H36.711a1,1,0,0,0,0,2Z"/>
        <path d="M15.581,14.639h9.964a1,1,0,0,0,0-2H15.581a1,1,0,0,0,0,2Z"/>
    </g>
<!--    <text x="0" y="79" fill="#000000" font-size="5px" font-weight="bold"-->
<!--          font-family="'Helvetica Neue', Helvetica, Arial-Unicode, Arial, Sans-serif">Created by DailyPM-->
<!--    </text>-->
<!--    <text x="0" y="84" fill="#000000" font-size="5px" font-weight="bold"-->
<!--          font-family="'Helvetica Neue', Helvetica, Arial-Unicode, Arial, Sans-serif">from the Noun Project-->
<!--    </text>-->
</svg>