<svg style="fill: #fff; margin-top: 10px;"
        xmlns="http://www.w3.org/2000/svg" viewBox="0 0 64 80" x="0px" y="0px">
    <title>book, trophy, education, achievement, award</title>
    <g data-name="Trophy Book">
        <path d="M18,3V1a1.0029,1.0029,0,0,1,1-1H47a1.0029,1.0029,0,0,1,1,1V3a1,1,0,0,1-1,1H19A1,1,0,0,1,18,3ZM33.7285,14.7349,33,13.2593l-.7275,1.4751a1,1,0,0,1-.7535.5473l-1.6269.2364,1.1772,1.1474a1.0017,1.0017,0,0,1,.2881.8853l-.2783,1.6211,1.4556-.7652a1,1,0,0,1,.93,0l1.4561.7657-.2773-1.6216a1,1,0,0,1,.2871-.8848l1.1777-1.1479-1.627-.2364A.9992.9992,0,0,1,33.7285,14.7349ZM33,29A12.01,12.01,0,0,1,21,17V6H45V17A12.01,12.01,0,0,1,33,29Zm6.208-14.4893A1.0012,1.0012,0,0,0,38.4,13.83l-3.1113-.4522-1.3926-2.8208a1.0414,1.0414,0,0,0-1.7935.0005l-1.3916,2.82-3.1123.4522a1,1,0,0,0-.5542,1.706l2.252,2.1949-.5318,3.1a1,1,0,0,0,1.4512,1.0542L33,20.4219l2.7842,1.4634a1,1,0,0,0,1.45-1.0542l-.5313-3.1,2.252-2.1954A1.0008,1.0008,0,0,0,39.208,14.5107ZM47,11h1v8a3.98,3.98,0,0,1-2.14,3.54,14.5073,14.5073,0,0,1-1.36,2.44A6.0089,6.0089,0,0,0,50,19V10a1.0029,1.0029,0,0,0-1-1H47ZM21.5,24.98a14.5073,14.5073,0,0,1-1.36-2.44A3.98,3.98,0,0,1,18,19V11h1V9H17a1.0029,1.0029,0,0,0-1,1v9A6.0089,6.0089,0,0,0,21.5,24.98ZM33,31a13.8376,13.8376,0,0,1-5-.93V34a2.7719,2.7719,0,0,1-.18,1H38.18A2.7719,2.7719,0,0,1,38,34V30.07A13.8376,13.8376,0,0,1,33,31Zm11.87,9A3.9916,3.9916,0,0,0,41,37H25a3.9916,3.9916,0,0,0-3.87,3ZM47,60h9a1.0029,1.0029,0,0,0,1-1V56H47Zm9-18H16a9,9,0,0,0,0,18H33V56H16a5,5,0,0,1,0-10H57V43A1.0029,1.0029,0,0,0,56,42ZM35,63a1,1,0,0,0,1.6.8L40,61.25l3.4,2.55A1,1,0,0,0,45,63V52H35Zm19-9V52H47v2ZM16,50H54V48H16a3,3,0,0,0,0,6H33V52H16a1,1,0,0,1,0-2Z"/>
    </g>
<!--    <text x="0" y="79" fill="#000000" font-size="5px" font-weight="bold"-->
<!--          font-family="'Helvetica Neue', Helvetica, Arial-Unicode, Arial, Sans-serif">Created by Kmg Design-->
<!--    </text>-->
<!--    <text x="0" y="84" fill="#000000" font-size="5px" font-weight="bold"-->
<!--          font-family="'Helvetica Neue', Helvetica, Arial-Unicode, Arial, Sans-serif">from the Noun Project-->
<!--    </text>-->
</svg>