<svg id="Capa_1" enable-background="new 0 0 511.729 511.729" height="512" viewBox="0 0 511.729 511.729" width="512" xmlns="http://www.w3.org/2000/svg"><g><path d="m192.77 432.484v64.245c0 8.284 6.716 15 15 15h224.792c8.284 0 15-6.716 15-15v-64.245c0-8.284-6.716-15-15-15h-49.792v-107.787l46.206-46.207c7.934 4.446 17.07 6.993 26.794 6.993 30.327 0 55-24.673 55-55s-24.673-55-55-55c-4.254 0-8.391.502-12.37 1.42l-82.125-82.125c10.406-20.629 7.02-46.489-10.187-63.695-21.444-21.444-56.337-21.444-77.781 0l-30.578 30.577c-8.105-4.541-17.271-6.97-26.817-6.97-14.691 0-28.503 5.721-38.891 16.109l-39.598 39.598c-2.813 2.813-4.394 6.628-4.394 10.606s1.581 7.793 4.394 10.606l113.137 113.137c2.813 2.813 6.628 4.394 10.606 4.394 3.979 0 7.793-1.581 10.606-4.394l39.598-39.598c10.388-10.388 16.109-24.199 16.109-38.891 0-9.545-2.429-18.712-6.97-26.817l21.501-21.501 74.293 74.293c-9.604 9.906-15.534 23.395-15.534 38.25 0 9.724 2.547 18.86 6.993 26.794l-50.599 50.6c-2.813 2.813-4.394 6.628-4.394 10.606v114h-66v-17c0-8.284-6.716-15-15-15s-15 6.716-15 15v17h-49c-8.283.002-14.999 6.717-14.999 15.002zm23.142-362.794c6.678 0 12.956 2.601 17.678 7.322l56.568 56.568c4.722 4.722 7.322 11 7.322 17.678s-2.601 12.956-7.322 17.677l-28.991 28.992-91.924-91.924 28.991-28.991c4.723-4.722 11-7.322 17.678-7.322zm113.962 2.962-29.109 29.109-35.355-35.355 29.109-29.109c4.874-4.874 11.276-7.311 17.678-7.311s12.804 2.437 17.678 7.311c9.746 9.747 9.746 25.607-.001 35.355zm125.896 167.832c-13.785 0-25-11.215-25-25s11.215-25 25-25 25 11.215 25 25-11.215 25-25 25zm-233 207h194.792v34.245h-194.792z"/><path d="m133.059 248.111c-3.839 0-7.678-1.464-10.606-4.394-5.858-5.858-5.858-15.355 0-21.213l28.284-28.284c5.857-5.858 15.355-5.858 21.213 0s5.858 15.355 0 21.213l-28.284 28.284c-2.929 2.93-6.768 4.394-10.607 4.394z"/><path d="m120.832 173.802-33.941 11.313c-1.574.524-3.173.773-4.745.773-6.28 0-12.133-3.975-14.229-10.261-2.62-7.859 1.628-16.354 9.487-18.974l33.941-11.313c7.861-2.619 16.354 1.628 18.974 9.487 2.62 7.861-1.628 16.355-9.487 18.975z"/><path d="m192.368 245.339c2.62-7.859 11.113-12.106 18.974-9.487 7.859 2.62 12.107 11.115 9.487 18.974l-11.313 33.941c-2.095 6.286-7.948 10.261-14.229 10.261-1.572 0-3.172-.249-4.745-.773-7.859-2.62-12.107-11.115-9.487-18.974z"/><path d="m.959 288.729v208c0 8.284 6.716 15 15 15h128c8.284 0 15-6.716 15-15v-176c0-8.284-6.716-15-15-15h-49v-17c0-8.284-6.716-15-15-15h-64c-8.285 0-15 6.716-15 15zm128 193h-34v-146h34zm-98-178h34v178h-34z"/></g></svg>