<svg id="Capa_1" enable-background="new 0 0 512 512" height="512" viewBox="0 0 512 512" width="512" xmlns="http://www.w3.org/2000/svg"><g><path d="m195.811 365.433c8.284 0 15-6.716 15-15v-100.24c0-8.284-6.716-15-15-15s-15 6.716-15 15v100.24c0 8.284 6.715 15 15 15z"/><path d="m75.403 332.412c8.284 0 15-6.716 15-15v-122.824c0-8.284-6.716-15-15-15s-15 6.716-15 15v122.824c0 8.284 6.716 15 15 15z"/><path d="m486.8.2h-100.406c-13.785 0-25 11.215-25 25v11.969h-95.407c-13.785 0-25 11.215-25 25v26.457h-90.38v-63.626c0-13.785-11.215-25-25-25h-100.407c-13.785 0-25 11.215-25 25v462c0 13.785 11.215 25 25 25h461.6c13.785 0 25-11.215 25-25v-461.8c0-13.785-11.215-25-25-25zm-366.194 481.8h-90.406v-58.626h90.406zm0-88.626h-90.406v-274.747h90.406zm0-304.748h-90.406v-58.626h90.406zm120.38 393.374h-90.38v-42.331h90.38zm0-72.331h-90.38v-218.712h90.38zm0-248.712h-90.38v-42.331h90.38zm120.408 321.043h-90.38v-51.792h90.38zm0-81.792h-90.38v-251.247h90.38zm0-281.247h-90.38c0-1.289-.027-18.755-.027-51.792h90.407zm120.406 363.039h-90.406v-58.59h90.406zm0-88.59h-90.406v-274.62h90.406zm0-304.62h-90.406c0-13.627 0-47.187 0-58.59h90.406z"/><path d="m436.597 332.486c8.284 0 15-6.716 15-15v-122.773c0-8.284-6.716-15-15-15s-15 6.716-15 15v122.773c0 8.285 6.715 15 15 15z"/><path d="m316.189 346.261c8.284 0 15-6.716 15-15v-113.353c0-8.284-6.716-15-15-15s-15 6.716-15 15v113.353c0 8.284 6.716 15 15 15z"/></g></svg>